Coordinates
version=1
nRows=14
nColumns=40
inDegrees=yes

Units are S.I. units (second, meters, Newtons, ...)
Angles are in degrees.

endheader
time	pelvis_tilt	pelvis_list	pelvis_rotation	pelvis_tx	pelvis_ty	pelvis_tz	hip_flexion_r	hip_adduction_r	hip_rotation_r	knee_angle_r	knee_angle_r_beta	ankle_angle_r	subtalar_angle_r	mtp_angle_r	hip_flexion_l	hip_adduction_l	hip_rotation_l	knee_angle_l	knee_angle_l_beta	ankle_angle_l	subtalar_angle_l	mtp_angle_l	lumbar_extension	lumbar_bending	lumbar_rotation	arm_flex_r	arm_add_r	arm_rot_r	elbow_flex_r	pro_sup_r	wrist_flex_r	wrist_dev_r	arm_flex_l	arm_add_l	arm_rot_l	elbow_flex_l	pro_sup_l	wrist_flex_l	wrist_dev_l
     50.65000000	     -6.76375826	     -5.08456945	      4.25578280	      1.18171751	      0.92813480	      0.42149750	     10.71437379	     -5.46046698	    -12.54860378	     32.99070528	     32.99070528	      9.55920529	     -7.22947750	    -10.39821435	     22.71496932	     -4.50401572	     -4.23775428	     23.44773209	     23.44773209	     10.64443537	    -13.31809361	      2.25381107	     -7.91506550	      4.51179485	      5.12581216	     43.64574860	    -12.42738740	     -4.08928685	     62.48607910	     45.06285852	      0.00000000	      0.00000000	      4.75823697	    -14.19324120	     18.12912457	     33.58277574	     44.81372391	      0.00000000	      0.00000000
     50.67171429	     -6.38273785	     -5.13144498	      3.70299315	      1.18124395	      0.92696709	      0.41863452	     14.05220949	     -5.97740113	    -10.36020564	     40.33336171	     40.33336171	      8.28740249	    -10.69821534	    -11.34346752	     22.62974380	     -4.56054146	     -4.35825768	     24.77353777	     24.77353777	     11.41711792	    -14.09201100	      2.11152698	     -8.13177416	      4.74380466	      4.67760939	     39.75264051	    -12.11814023	     -4.01505607	     59.69333576	     45.14768604	      0.00000000	      0.00000000	      6.79339184	    -14.11740262	     18.22988175	     33.28035651	     44.84954975	      0.00000000	      0.00000000
     50.69342857	     -5.90124136	     -5.08657968	      3.14783725	      1.18093243	      0.92557939	      0.41564141	     17.02494286	     -6.34029123	     -8.20848802	     47.06599327	     47.06599327	      7.15524346	    -13.29689353	    -10.69100766	     22.38177010	     -4.48615506	     -4.42097696	     26.08378949	     26.08378949	     12.49946877	    -14.79460044	      2.37106801	     -8.47194318	      4.94782008	      4.29385649	     35.90666936	    -11.75689478	     -4.25136866	     56.15103379	     45.27559519	      0.00000000	      0.00000000	      9.03902665	    -14.04851557	     18.57722899	     32.79277348	     44.86886641	      0.00000000	      0.00000000
     50.71514286	     -5.42091739	     -5.02212154	      2.67071684	      1.18063019	      0.92397011	      0.41274017	     19.76614384	     -6.59712402	     -6.36353722	     53.22755396	     53.22755396	      7.18735618	    -14.22576289	     -6.47508312	     22.26278424	     -4.38836016	     -4.51054482	     27.62387287	     27.62387287	     13.74314326	    -15.40820383	      3.33510870	     -8.75133597	      5.04913685	      3.84156560	     32.25133048	    -11.32472601	     -5.07015950	     51.83351155	     45.46385706	      0.00000000	      0.00000000	     11.33930081	    -14.11068672	     19.36629150	     32.32472477	     44.86810774	      0.00000000	      0.00000000
     50.73685714	     -4.90518092	     -5.01742305	      2.19589117	      1.18047159	      0.92222208	      0.40992742	     22.02157135	     -6.63412973	     -4.69052879	     58.13520376	     58.13520376	      6.22693213	    -15.48291935	     -5.24413003	     22.02007429	     -4.32184216	     -4.51121174	     28.98824223	     28.98824223	     14.60678334	    -16.20645388	      3.19905997	     -9.17520829	      5.31095144	      3.76837847	     28.04662169	    -11.57463571	     -5.11513529	     48.88932213	     45.55287837	      0.00000000	      0.00000000	     13.42641479	    -14.11361647	     19.28431209	     33.06706516	     44.92425527	      0.00000000	      0.00000000
     50.75857143	     -4.31760608	     -4.97902436	      1.73372824	      1.18027909	      0.92062752	      0.40736830	     24.08387287	     -6.63177543	     -3.17636630	     62.45442602	     62.45442602	      7.44384763	    -15.11714101	      1.28642032	     21.73830978	     -4.23568210	     -4.56226004	     30.45625864	     30.45625864	     16.08349271	    -16.63302175	      4.66171992	     -9.64999041	      5.52384358	      3.37833940	     24.94043253	    -11.15469756	     -6.56544490	     43.69364952	     45.79585483	      0.00000000	      0.00000000	     15.70773658	    -14.22193535	     19.95386375	     32.93573228	     44.95281443	      0.00000000	      0.00000000
     50.78028571	     -3.82940257	     -5.02964279	      1.29721231	      1.18014253	      0.91901779	      0.40503901	     25.75877391	     -6.56705327	     -2.04468685	     65.20497081	     65.20497081	      6.86277584	    -15.64408872	      1.75964789	     21.43478766	     -4.22740778	     -4.59302497	     31.62203417	     31.62203417	     16.87543881	    -17.22446238	      4.58230552	    -10.09419204	      5.86535921	      3.31674588	     20.90943231	    -11.52811471	     -6.62394849	     40.91610746	     45.87953064	      0.00000000	      0.00000000	     17.73859086	    -14.17450632	     19.73261201	     33.84891425	     45.02327095	      0.00000000	      0.00000000
     50.80200000	     -3.35789792	     -5.05986334	      0.85669905	      1.17993239	      0.91774700	      0.40300488	     27.25561053	     -6.51436846	     -1.09183074	     66.93343188	     66.93343188	      7.20079552	    -15.57651548	      3.80970494	     21.12049457	     -4.19508843	     -4.62831114	     32.75679595	     32.75679595	     18.26029501	    -17.50310228	      6.20304219	    -10.52678903	      6.20450526	      3.01700494	     18.01217875	    -11.45155926	     -7.64009505	     35.84838733	     46.11080603	      0.00000000	      0.00000000	     19.91563374	    -14.14690479	     19.61132695	     34.00776951	     45.11666330	      0.00000000	      0.00000000
     50.82371429	     -3.03214727	     -5.13654391	      0.37299029	      1.17965847	      0.91666915	      0.40140280	     28.61294518	     -6.43523658	     -0.39882470	     67.35937566	     67.35937566	      7.11945053	    -15.60485476	      3.58948849	     20.79073664	     -4.26278899	     -4.81515124	     33.51691665	     33.51691665	     18.88780016	    -17.85114191	      6.18370021	    -10.89893016	      6.60051096	      2.97645747	     14.16298035	    -11.85596950	     -7.77300611	     33.51397658	     46.18467659	      0.00000000	      0.00000000	     21.82041409	    -14.18912331	     19.20049687	     35.26323524	     45.20561869	      0.00000000	      0.00000000
     50.84542857	     -2.76426793	     -5.23371823	     -0.13410456	      1.17932842	      0.91611249	      0.40022575	     29.73214283	     -6.32781230	      0.05346365	     66.53260480	     66.53260480	      7.19113862	    -15.43746651	      2.88421860	     20.36090552	     -4.36991304	     -5.05114112	     33.97382571	     33.97382571	     19.52634327	    -18.05218281	      6.47114749	    -11.26683033	      7.00161623	      2.98699574	     10.52949217	    -12.21491203	     -7.94869655	     30.99082980	     46.27276061	      0.00000000	      0.00000000	     23.71943319	    -14.22721313	     18.67177720	     36.58942560	     45.30838902	      0.00000000	      0.00000000
     50.86714286	     -2.64461624	     -5.33070781	     -0.70216488	      1.17888732	      0.91600350	      0.39948330	     30.67692919	     -6.20458053	      0.27610667	     64.45812151	     64.45812151	      7.26533445	    -15.00950370	      1.52131847	     19.93480228	     -4.50644346	     -5.38020826	     34.13691535	     34.13691535	     20.06068268	    -18.18566220	      6.91305249	    -11.53558762	      7.39376936	      3.01072584	      7.04882177	    -12.54537266	     -8.14255660	     28.54482062	     46.36324646	      0.00000000	      0.00000000	     25.56045606	    -14.31437635	     17.98044965	     38.07053652	     45.42833281	      0.00000000	      0.00000000
     50.88885714	     -2.67800667	     -5.38729746	     -1.28126578	      1.17832555	      0.91648117	      0.39919772	     31.13548676	     -6.11437873	      0.18290664	     60.60867467	     60.60867467	      5.00615440	    -15.66974569	     -6.71073036	     19.54024945	     -4.59222291	     -5.68539770	     34.05056296	     34.05056296	     20.83244677	    -18.17910375	      8.47540582	    -11.65402669	      7.70763400	      2.24961436	      4.60335538	    -12.40287052	     -9.49370286	     25.33964225	     46.60291580	      0.00000000	      0.00000000	     26.55360638	    -14.76459915	     15.19892295	     40.40727238	     45.80420358	      0.00000000	      0.00000000
     50.91057143	     -2.83315122	     -5.46010156	     -1.91710341	      1.17772192	      0.91734664	      0.39949381	     31.43124854	     -5.86778019	     -0.05027319	     56.03389421	     56.03389421	      4.36309647	    -14.90033499	    -10.08049985	     19.04093974	     -4.77667722	     -6.20965571	     33.48934764	     33.48934764	     20.76537756	    -18.22377950	      8.18379709	    -11.71132386	      7.99823707	      2.16873490	      1.18272789	    -12.60089107	    -10.11607616	     24.18159291	     46.69168258	      0.00000000	      0.00000000	     28.11836275	    -14.96533606	     13.66363165	     42.22992225	     46.01778748	      0.00000000	      0.00000000
     50.93228571	     -3.06460602	     -5.55444413	     -2.56210952	      1.17707720	      0.91867005	      0.40039820	     31.40519846	     -5.44767866	     -0.45395437	     50.76834711	     50.76834711	      4.56733023	    -12.91754373	    -10.09396655	     18.51541798	     -5.01570647	     -6.75769499	     32.72930184	     32.72930184	     20.71049472	    -18.18789790	      8.30733996	    -11.70398715	      8.24924425	      1.99532726	     -1.89685837	    -12.75842034	    -10.17425536	     22.97267441	     46.72333684	      0.00000000	      0.00000000	     29.84891865	    -15.51503357	     13.09715268	     43.53465348	     46.10493540	      0.00000000	      0.00000000
